<svg width="24" height="22" viewBox="0 0 24 22" fill="none" xmlns="http://www.w3.org/2000/svg">
<g filter="url(#filter0_d_704_1559)">
<path d="M16.8103 3.80983L4.05422 16.5973L3.28125 18.4686L5.1525 17.6956L17.94 4.93952L16.8103 3.80983ZM19.3627 1.25795L18.81 1.81014L19.9397 2.93983L20.4923 2.38717C20.6374 2.24205 20.7188 2.04529 20.7188 1.84014C20.7188 1.63499 20.6374 1.43823 20.4923 1.29311L20.4572 1.25795C20.3853 1.18608 20.3 1.12907 20.2061 1.09017C20.1122 1.05127 20.0116 1.03125 19.9099 1.03125C19.8083 1.03125 19.7076 1.05127 19.6137 1.09017C19.5198 1.12907 19.4345 1.18608 19.3627 1.25795Z" stroke="black" stroke-width="2.0625" stroke-linecap="round" stroke-linejoin="round" shape-rendering="crispEdges"/>
</g>
<defs>
<filter id="filter0_d_704_1559" x="-1.75" y="0" width="27.5" height="27.4999" filterUnits="userSpaceOnUse" color-interpolation-filters="sRGB">
<feFlood flood-opacity="0" result="BackgroundImageFix"/>
<feColorMatrix in="SourceAlpha" type="matrix" values="0 0 0 0 0 0 0 0 0 0 0 0 0 0 0 0 0 0 127 0" result="hardAlpha"/>
<feOffset dy="4"/>
<feGaussianBlur stdDeviation="2"/>
<feComposite in2="hardAlpha" operator="out"/>
<feColorMatrix type="matrix" values="0 0 0 0 0 0 0 0 0 0 0 0 0 0 0 0 0 0 0.25 0"/>
<feBlend mode="normal" in2="BackgroundImageFix" result="effect1_dropShadow_704_1559"/>
<feBlend mode="normal" in="SourceGraphic" in2="effect1_dropShadow_704_1559" result="shape"/>
</filter>
</defs>
</svg>
