<svg width="174" height="48" viewBox="0 0 174 48" fill="none" xmlns="http://www.w3.org/2000/svg">
<path d="M5.33366 24C5.33366 22.5272 4.13975 21.3333 2.66699 21.3333C1.19423 21.3333 0.000328 22.5272 0.000328064 24C0.000328128 25.4728 1.19423 26.6667 2.66699 26.6667C4.13975 26.6667 5.33366 25.4728 5.33366 24ZM38.667 23.5L2.66699 23.5L2.66699 24.5L38.667 24.5L38.667 23.5Z" fill="black"/>
<path d="M80.1617 43.5H77.666C77.4153 43.4999 77.1685 43.437 76.9484 43.3169C76.7282 43.1969 76.5417 43.0235 76.4058 42.8128C76.2699 42.602 76.1891 42.3606 76.1706 42.1105C76.1521 41.8604 76.1967 41.6097 76.3001 41.3812L82.3432 28.0453L73.2692 27.8438L69.9598 31.8534C69.3288 32.6466 68.8254 33 67.541 33H65.861C65.595 33.0086 65.3309 32.9529 65.091 32.8377C64.8511 32.7224 64.6425 32.5511 64.4829 32.3381C64.2598 32.0372 64.0404 31.5272 64.2542 30.7997L66.1123 24.1434C66.1263 24.0938 66.1432 24.0441 66.162 23.9953C66.1629 23.9907 66.1629 23.9859 66.162 23.9813C66.1426 23.9325 66.126 23.8828 66.1123 23.8322L64.2523 17.1337C64.0507 16.4203 64.271 15.9216 64.4923 15.6281C64.6408 15.431 64.8336 15.2715 65.055 15.1624C65.2765 15.0533 65.5204 14.9977 65.7673 15L67.541 15C68.5001 15 69.431 15.4303 69.9785 16.125L73.2195 20.0672L82.3432 19.9322L76.302 6.61969C76.1984 6.39136 76.1537 6.14071 76.172 5.89065C76.1902 5.6406 76.2709 5.39911 76.4066 5.18827C76.5423 4.97743 76.7286 4.80396 76.9486 4.68373C77.1687 4.56349 77.4153 4.50033 77.666 4.5L80.1888 4.5C80.5408 4.50707 80.8866 4.59334 81.2007 4.75239C81.5147 4.91145 81.7889 5.1392 82.0029 5.41875L93.7263 19.6688L99.1423 19.5262C99.5388 19.5047 100.638 19.4972 100.892 19.4972C106.072 19.5 109.166 21.1819 109.166 24C109.166 24.8869 108.812 26.5313 106.441 27.5775C105.041 28.1963 103.174 28.5094 100.89 28.5094C100.639 28.5094 99.5426 28.5019 99.1404 28.4803L93.7254 28.3359L81.9729 42.5859C81.7588 42.8643 81.4848 43.0909 81.1713 43.2491C80.8578 43.4073 80.5128 43.4931 80.1617 43.5Z" fill="#112211"/>
<path d="M173.334 24C173.334 22.5272 172.14 21.3333 170.667 21.3333C169.194 21.3333 168 22.5272 168 24C168 25.4728 169.194 26.6667 170.667 26.6667C172.14 26.6667 173.334 25.4728 173.334 24ZM170.667 23.5L134.667 23.5L134.667 24.5L170.667 24.5L170.667 23.5Z" fill="black"/>
</svg>
